Genre:Horror | Thriller
Language:English
 
http://www.imdb.com/title/tt1148200/

Source:720p.BluRay.x264-BRMP


Format : MPEG-4
Format profile : Base Media
Codec ID : isom
File size : 2.40 GiB
Duration : 1h 27mn
Overall bit rate : 3 918 Kbps


Video
Format settings, CABAC : Yes
Format settings, ReFrames : 3 frames
Codec ID : avc1
Codec ID/Info : Advanced Video Coding
Duration : 1h 27mn
Bit rate mode : Variable
Bit rate : 3 530 Kbps
Maximum bit rate : 27.6 Mbps
Width : 1 280 pixels
Height : 720 pixels
Display aspect ratio : 16:9
Frame rate mode : Constant
Frame rate : 23.976 fps
Color space : YUV
Chroma subsampling : 4:2:0
Bit depth : 8 bits
Scan type : Progressive
Bits/(Pixel*Frame) : 0.160
Stream size : 2.12 GiB (89%)
Writing library : x264

Audio
ID : 2
Format : AAC
Format/Info : Advanced Audio Codec
Format version : Version 4
Format profile : LC
Format settings, SBR : No
Codec ID : 40
Duration : 1h 27mn
Bit rate mode : Variable
Bit rate : 444 Kbps
Maximum bit rate : 566 Kbps
Channel(s) : 6 channels
Channel positions : Front: L C R, Side: L R, LFE
Sampling rate : 48.0 KHz
Stream size : 278 MiB (11%)



Plot:
A maniac murders teens when they refuse to forward chain mail
 
http://www.rapidhdd.com/images/158618vlcsnap-00006.png
 
http://www.rapidhdd.com/images/719725vlcsnap-00003.png
 
http://www.rapidhdd.com/images/27028vlcsnap-00001.png
 
http://www.rapidhdd.com/images/207897vlcsnap-00005.png

